<mxfile host="app.diagrams.net" modified="2024-01-29T04:00:41.138Z" agent="Mozilla/5.0 (Windows NT 10.0; Win64; x64) AppleWebKit/537.36 (KHTML, like Gecko) Chrome/121.0.0.0 Safari/537.36" version="23.0.2" etag="fB9Pg3NuqWGQx2dLZf48" type="github">
  <diagram name="페이지-1" id="qjQy2F5a-WHERvEfg9et">
    <mxGraphModel>
      <root>
        <mxCell id="0" />
        <mxCell id="1" parent="0" />
      </root>
    </mxGraphModel>
  </diagram>
</mxfile>
